<?xml version="1.0" encoding="utf-8"?>
<svg width="96px" height="44px" viewBox="0 0 96 44" version="1.1" xmlns:xlink="http://www.w3.org/1999/xlink" xmlns="http://www.w3.org/2000/svg">
  <g id="Bobby" fill="#197BDA">
    <path d="M56.24 19.76Q54.016 17.68 51.008 17.68Q48.64 17.68 47.264 18.96L47.264 10Q47.264 9.424 46.864 9.248Q46.464 9.072 45.92 9.36L41.792 11.28Q41.056 11.6 41.056 12.048L41.056 12.144Q41.056 12.464 41.792 13.12Q42.528 13.776 42.528 14.576L42.528 30.256Q42.528 31.024 41.904 31.712Q41.28 32.4 41.28 32.72L41.28 32.816Q41.28 33.36 41.952 33.36L46.08 33.392C46.5707 33.392 46.816 33.1573 46.816 32.688L46.816 31.984Q48.416 33.68 51.008 33.68Q54.08 33.68 56.272 31.36Q58.464 29.04 58.464 25.424Q58.464 21.84 56.24 19.76ZM69.824 17.68Q72.832 17.68 75.056 19.76Q77.28 21.84 77.28 25.424Q77.28 29.04 75.088 31.36Q72.896 33.68 69.824 33.68Q67.232 33.68 65.632 31.984L65.632 32.688C65.632 33.1573 65.3867 33.392 64.896 33.392L60.768 33.36Q60.096 33.36 60.096 32.816L60.096 32.72Q60.096 32.4 60.72 31.712Q61.344 31.024 61.344 30.256L61.344 14.576Q61.344 13.776 60.608 13.12Q59.872 12.464 59.872 12.144L59.872 12.048Q59.872 11.6 60.608 11.28L64.736 9.36Q65.28 9.072 65.68 9.248Q66.08 9.424 66.08 10L66.08 18.96Q67.456 17.68 69.824 17.68ZM14.976 21.136Q17.856 21.52 19.504 23.088Q21.152 24.656 21.152 26.96Q21.152 29.904 18.544 31.632Q15.936 33.36 11.168 33.36L2.24 33.36Q1.7992 33.36 1.6344 33.1467Q1.536 33.0194 1.536 32.816L1.536 32.688Q1.536 32.368 2.144 31.696Q2.752 31.024 2.752 30.288L2.752 13.712Q2.752 12.976 2.144 12.288Q1.536 11.6 1.536 11.28L1.536 11.152Q1.536 10.64 2.24 10.64L10.56 10.64Q14.592 10.64 16.768 12.24Q18.944 13.84 18.944 16.368Q18.944 18.16 17.872 19.44Q16.8 20.72 14.976 21.136ZM7.552 14.032L7.552 18.864Q7.552 19.568 7.984 19.984Q8.416 20.4 9.152 20.4L11.392 20.4Q12.896 20.4 13.808 19.472Q14.72 18.544 14.72 17.104Q14.72 14.96 13.552 13.776Q12.384 12.592 10.4 12.592L8.896 12.592Q8.27029 12.592 7.93588 12.9041Q7.552 13.2624 7.552 14.032ZM31.488 33.68Q27.68 33.68 25.2 31.328Q22.72 28.976 22.72 25.584Q22.72 22.16 25.152 19.92Q27.584 17.68 31.008 17.68Q34.688 17.68 37.152 20Q39.616 22.32 39.616 25.744Q39.616 29.168 37.296 31.424Q34.976 33.68 31.488 33.68ZM95.744 18.512Q95.744 18 95.104 18L91.2 18Q90.528 18 90.528 18.544L90.528 18.672Q90.528 18.96 91.072 19.36Q91.616 19.76 91.936 20.176Q92.256 20.592 91.936 21.68L88.48 29.904L84.736 21.232Q84.448 20.336 84.544 20.016Q84.64 19.696 84.928 19.328Q85.216 18.96 85.216 18.672L85.216 18.544Q85.216 18 84.608 18L78.624 18Q77.952 18 77.952 18.512L77.952 18.672Q77.952 19.088 78.64 19.776Q79.328 20.464 79.68 21.168L86.048 34.224Q84.224 38.704 82.752 38.704Q82.208 38.704 81.872 38.112Q81.536 37.52 81.376 36.784Q81.216 36.048 80.704 35.456Q80.192 34.864 79.296 34.864Q78.4 34.864 77.888 35.392Q77.376 35.92 77.376 36.784Q77.376 38.096 78.704 39.152Q80.032 40.208 82.08 40.208Q83.008 40.208 83.872 39.792Q84.736 39.376 85.312 38.832Q85.888 38.288 86.48 37.344Q87.072 36.4 87.36 35.824Q87.648 35.248 88.064 34.32L94.112 21.168Q94.432 20.496 95.088 19.792Q95.744 19.088 95.744 18.672L95.744 18.512ZM52.944 31.024Q52.096 32.304 50.528 32.304Q49.28 32.304 48.272 31.008Q47.264 29.712 47.264 28.08L47.264 22.288Q47.264 20.848 48 19.952Q48.736 19.056 49.856 19.056Q51.072 19.056 52 20.304Q52.928 21.552 53.36 23.408Q53.792 25.264 53.792 27.344Q53.792 29.744 52.944 31.024ZM69.344 32.304Q70.912 32.304 71.76 31.024Q72.608 29.744 72.608 27.344Q72.608 25.264 72.176 23.408Q71.744 21.552 70.816 20.304Q69.888 19.056 68.672 19.056Q67.552 19.056 66.816 19.952Q66.08 20.848 66.08 22.288L66.08 28.08Q66.08 29.712 67.088 31.008Q68.096 32.304 69.344 32.304ZM32.064 32.272Q33.376 32.272 34.096 31.056Q34.816 29.84 34.816 27.632Q34.816 25.808 34.288 23.872Q33.76 21.936 32.704 20.512Q31.648 19.088 30.368 19.088Q27.424 19.088 27.424 23.76Q27.424 25.488 27.952 27.408Q28.48 29.328 29.584 30.8Q30.688 32.272 32.064 32.272ZM11.712 31.408Q13.856 31.408 14.992 30.432Q16.128 29.456 16.128 27.696Q16.128 25.584 14.432 23.936Q12.736 22.288 9.792 22.288L7.552 22.288L7.552 29.104Q7.552 30.096 8.128 30.752Q8.704 31.408 9.632 31.408L11.712 31.408Z" />
  </g>
</svg>