<svg id="visual" viewBox="0 0 900 600" width="900" height="600" xmlns="http://www.w3.org/2000/svg" xmlns:xlink="http://www.w3.org/1999/xlink" version="1.1"><rect x="0" y="0" width="900" height="600" fill="#001220"></rect><defs><linearGradient id="grad1_0" x1="33.3%" y1="0%" x2="100%" y2="100%"><stop offset="20%" stop-color="#001220" stop-opacity="1"></stop><stop offset="80%" stop-color="#001220" stop-opacity="1"></stop></linearGradient></defs><defs><linearGradient id="grad2_0" x1="0%" y1="0%" x2="66.7%" y2="100%"><stop offset="20%" stop-color="#001220" stop-opacity="1"></stop><stop offset="80%" stop-color="#001220" stop-opacity="1"></stop></linearGradient></defs><g transform="translate(900, 0)"><path d="M0 486.7C-41.3 430.4 -82.6 374.1 -149.2 360.3C-215.9 346.5 -308 375.1 -344.2 344.2C-380.4 313.2 -360.7 222.7 -375.1 155.4C-389.5 88.1 -438.1 44 -486.7 0L0 0Z" fill="#FBAE3C"></path></g><g transform="translate(0, 600)"><path d="M0 -486.7C54.7 -460.2 109.5 -433.7 171.8 -414.8C234.2 -396 304.2 -384.8 344.2 -344.2C384.2 -303.5 394.2 -233.3 413 -171.1C431.7 -108.8 459.2 -54.4 486.7 0L0 0Z" fill="#FBAE3C"></path></g></svg>