<svg id="visual" viewBox="0 0 900 600" width="900" height="600" xmlns="http://www.w3.org/2000/svg" xmlns:xlink="http://www.w3.org/1999/xlink" version="1.1"><rect x="0" y="0" width="900" height="600" fill="#001220"></rect><path d="M0 404L21.5 400.2C43 396.3 86 388.7 128.8 382.2C171.7 375.7 214.3 370.3 257.2 375.5C300 380.7 343 396.3 385.8 395.3C428.7 394.3 471.3 376.7 514.2 366.5C557 356.3 600 353.7 642.8 366.7C685.7 379.7 728.3 408.3 771.2 420.2C814 432 857 427 878.5 424.5L900 422L900 601L878.5 601C857 601 814 601 771.2 601C728.3 601 685.7 601 642.8 601C600 601 557 601 514.2 601C471.3 601 428.7 601 385.8 601C343 601 300 601 257.2 601C214.3 601 171.7 601 128.8 601C86 601 43 601 21.5 601L0 601Z" fill="#fa7268"></path><path d="M0 449L21.5 452C43 455 86 461 128.8 453C171.7 445 214.3 423 257.2 413.2C300 403.3 343 405.7 385.8 415.2C428.7 424.7 471.3 441.3 514.2 442.8C557 444.3 600 430.7 642.8 431.8C685.7 433 728.3 449 771.2 450.5C814 452 857 439 878.5 432.5L900 426L900 601L878.5 601C857 601 814 601 771.2 601C728.3 601 685.7 601 642.8 601C600 601 557 601 514.2 601C471.3 601 428.7 601 385.8 601C343 601 300 601 257.2 601C214.3 601 171.7 601 128.8 601C86 601 43 601 21.5 601L0 601Z" fill="#ef5f67"></path><path d="M0 506L21.5 503.2C43 500.3 86 494.7 128.8 489.5C171.7 484.3 214.3 479.7 257.2 475.8C300 472 343 469 385.8 465.7C428.7 462.3 471.3 458.7 514.2 460.2C557 461.7 600 468.3 642.8 467.8C685.7 467.3 728.3 459.7 771.2 458.2C814 456.7 857 461.3 878.5 463.7L900 466L900 601L878.5 601C857 601 814 601 771.2 601C728.3 601 685.7 601 642.8 601C600 601 557 601 514.2 601C471.3 601 428.7 601 385.8 601C343 601 300 601 257.2 601C214.3 601 171.7 601 128.8 601C86 601 43 601 21.5 601L0 601Z" fill="#e34c67"></path><path d="M0 509L21.5 506.2C43 503.3 86 497.7 128.8 495.8C171.7 494 214.3 496 257.2 499.5C300 503 343 508 385.8 511.8C428.7 515.7 471.3 518.3 514.2 520.2C557 522 600 523 642.8 526.3C685.7 529.7 728.3 535.3 771.2 534.8C814 534.3 857 527.7 878.5 524.3L900 521L900 601L878.5 601C857 601 814 601 771.2 601C728.3 601 685.7 601 642.8 601C600 601 557 601 514.2 601C471.3 601 428.7 601 385.8 601C343 601 300 601 257.2 601C214.3 601 171.7 601 128.8 601C86 601 43 601 21.5 601L0 601Z" fill="#d53867"></path><path d="M0 541L21.5 545.3C43 549.7 86 558.3 128.8 560.5C171.7 562.7 214.3 558.3 257.2 553C300 547.7 343 541.3 385.8 543C428.7 544.7 471.3 554.3 514.2 560.5C557 566.7 600 569.3 642.8 569.5C685.7 569.7 728.3 567.3 771.2 566C814 564.7 857 564.3 878.5 564.2L900 564L900 601L878.5 601C857 601 814 601 771.2 601C728.3 601 685.7 601 642.8 601C600 601 557 601 514.2 601C471.3 601 428.7 601 385.8 601C343 601 300 601 257.2 601C214.3 601 171.7 601 128.8 601C86 601 43 601 21.5 601L0 601Z" fill="#c62368"></path></svg>