<svg id="visual" viewBox="0 0 900 600" width="900" height="600" xmlns="http://www.w3.org/2000/svg" xmlns:xlink="http://www.w3.org/1999/xlink" version="1.1"><rect x="0" y="0" width="900" height="600" fill="#002233"></rect><path d="M0 459L21.5 454.5C43 450 86 441 128.8 441C171.7 441 214.3 450 257.2 457C300 464 343 469 385.8 462.8C428.7 456.7 471.3 439.3 514.2 442.5C557 445.7 600 469.3 642.8 471.5C685.7 473.7 728.3 454.3 771.2 449.2C814 444 857 453 878.5 457.5L900 462L900 601L878.5 601C857 601 814 601 771.2 601C728.3 601 685.7 601 642.8 601C600 601 557 601 514.2 601C471.3 601 428.7 601 385.8 601C343 601 300 601 257.2 601C214.3 601 171.7 601 128.8 601C86 601 43 601 21.5 601L0 601Z" fill="#0066FF" stroke-linecap="round" stroke-linejoin="miter"></path></svg>